<?xml version="1.0" encoding="UTF-8"?>
<!DOCTYPE svg PUBLIC "-//W3C//DTD SVG 1.1//EN" "http://www.w3.org/Graphics/SVG/1.1/DTD/svg11.dtd">
<!-- Creator: CorelDRAW X6 -->
<svg xmlns="http://www.w3.org/2000/svg" xml:space="preserve" width="165.337mm" height="59.8682mm" version="1.1" style="shape-rendering:geometricPrecision; text-rendering:geometricPrecision; image-rendering:optimizeQuality; fill-rule:evenodd; clip-rule:evenodd"
viewBox="0 0 7003 2536"
 xmlns:xlink="http://www.w3.org/1999/xlink">
 <defs>
  <style type="text/css">
   <![CDATA[
    .fil0 {fill:none}
    .fil1 {fill:#9B9B9B}
    .fil2 {fill:#FEFEFE;fill-rule:nonzero}
   ]]>
  </style>
 </defs>
 <g id="Capa_x0020_1">
  <metadata id="CorelCorpID_0Corel-Layer"/>
  <rect class="fil0" width="7003" height="2536"/>
  <path class="fil1" d="M3431 1314l88 0 0 110c0,35 -4,59 -83,59 -147,0 -160,-71 -160,-200 0,-130 12,-200 160,-200 34,0 78,3 116,8l5 -42c-43,-8 -91,-11 -141,-11 -155,0 -193,73 -193,245 0,171 38,245 193,245 90,0 156,-5 156,-80l0 -178 -140 0 0 43zm463 210l0 -201c24,1 74,3 100,3l7 0 112 198 62 0 -118 -202c72,-11 118,-48 118,-141 0,-123 -85,-143 -187,-143 -52,0 -105,4 -147,11l0 474 53 0zm0 -436c35,-5 70,-6 97,-6 97,0 132,28 132,99 0,81 -49,102 -135,102 -28,0 -55,0 -94,-4l0 -191zm724 441c145,0 186,-71 186,-245 0,-174 -41,-245 -186,-245 -145,0 -186,71 -186,245 0,174 41,245 186,245zm0 -45c-127,0 -132,-83 -132,-201 0,-118 5,-201 132,-201 127,0 132,83 132,201 0,117 -5,201 -132,201zm804 -441l-53 0 0 331c0,74 -33,110 -121,110 -87,0 -121,-35 -121,-110l0 -331 -52 0 0 326c0,127 69,160 173,160 105,0 174,-33 174,-160l0 -326zm336 284c24,1 73,3 100,3 107,0 182,-26 182,-148 0,-124 -84,-145 -187,-145 -52,0 -105,4 -147,11l0 475 53 0 0 -197zm0 -240c34,-4 70,-6 97,-6 97,0 132,29 132,101 0,84 -48,104 -135,104 -28,0 -56,0 -94,-4l0 -195z"/>
  <path class="fil1" d="M1827 84c640,0 1159,519 1159,1159 0,640 -519,1159 -1159,1159 -640,0 -1159,-519 -1159,-1159 0,-640 519,-1159 1159,-1159zm-587 875c-62,0 -127,6 -171,14l0 519c53,9 112,14 181,14 113,0 212,-23 212,-145 0,-81 -38,-118 -87,-134 53,-20 79,-68 79,-126 0,-123 -112,-142 -213,-142zm4 301c71,0 125,12 125,88 0,74 -50,85 -122,85 -33,0 -59,-2 -85,-5l0 -168 82 0zm-82 -66l0 -157c27,-3 56,-5 79,-5 74,0 122,8 122,80 0,72 -49,83 -118,83l-82 0zm594 231l233 -389c8,-14 13,-26 13,-37 0,-22 -18,-35 -52,-35l-298 0 0 76 231 0 -235 389c-9,14 -13,27 -13,37 0,22 19,35 52,35l312 0 0 -76 -244 0zm515 76l45 -143 198 0 45 143 99 0 -160 -478c-15,-44 -43,-64 -80,-64 -37,0 -66,20 -81,64l-163 478 96 0zm67 -213l76 -242 77 242 -153 0z"/>
  <path class="fil2" d="M1240 959c-62,0 -127,6 -171,14l0 519c53,9 112,14 181,14 113,0 212,-23 212,-145 0,-81 -38,-118 -87,-134 53,-20 79,-68 79,-126 0,-123 -112,-142 -213,-142zm4 301c71,0 125,12 125,88 0,74 -50,85 -122,85 -33,0 -59,-2 -85,-5l0 -168 82 0zm-82 -66l0 -157c27,-3 56,-5 79,-5 74,0 122,8 122,80 0,72 -49,83 -118,83l-82 0zm594 231l233 -389c8,-14 13,-26 13,-37 0,-22 -18,-35 -52,-35l-298 0 0 76 231 0 -235 389c-9,14 -13,27 -13,37 0,22 19,35 52,35l312 0 0 -76 -244 0zm515 76l45 -143 198 0 45 143 99 0 -160 -478c-15,-44 -43,-64 -80,-64 -37,0 -66,20 -81,64l-163 478 96 0zm67 -213l76 -242 77 242 -153 0z"/>
 </g>
</svg>
