<?xml version="1.0" encoding="UTF-8"?>
<!DOCTYPE svg PUBLIC "-//W3C//DTD SVG 1.1//EN" "http://www.w3.org/Graphics/SVG/1.1/DTD/svg11.dtd">
<!-- Creator: CorelDRAW X6 -->
<svg xmlns="http://www.w3.org/2000/svg" xml:space="preserve" width="165.337mm" height="67.033mm" version="1.1" style="shape-rendering:geometricPrecision; text-rendering:geometricPrecision; image-rendering:optimizeQuality; fill-rule:evenodd; clip-rule:evenodd"
viewBox="0 0 4837 1961"
 xmlns:xlink="http://www.w3.org/1999/xlink">
 <defs>
  <style type="text/css">
   <![CDATA[
    .fil0 {fill:none}
    .fil1 {fill:#666666}
   ]]>
  </style>
 </defs>
 <g id="Capa_x0020_1">
  <metadata id="CorelCorpID_0Corel-Layer"/>
  <rect class="fil0" width="4837" height="1961"/>
  <path class="fil1" d="M4630 344l-46 -2 -5 -3 -4 2 -98 -4 136 0c6,2 12,4 17,6zm-7 475l-17 -1 1 -4 3 -2 30 0c-6,2 -11,5 -17,7zm-50 -2l-125 -5 124 0 0 5zm91 -17l-34 -1 13 -8 38 0c-5,3 -11,7 -16,10zm-90 -3l-167 -6 169 0 -2 6zm119 -16l-41 -2 4 -10 51 0c-5,4 -10,8 -15,12zm-114 -4l-201 -8 203 0c-1,2 -1,5 -2,8zm137 -16l-56 -2 2 -6 13 -6 54 0c-4,5 -9,9 -13,14zm-133 -5l-228 -9 225 0c1,4 2,7 2,9zm152 -15l-43 -2 0 0 7 -13 47 0c-4,5 -8,10 -12,15zm-158 -6l-240 -9 237 0 3 9zm173 -14l-47 -2 8 -14 49 0c-3,6 -6,11 -10,16zm-180 -7l-246 -9 241 0 5 9zm192 -14l-49 -2 7 -13 -3 -2 53 0c-3,6 -5,11 -8,17zm-204 -8l-246 -9 241 0 5 9zm214 -13l-65 -2 -26 -15 98 0c-2,6 -4,12 -7,18zm-214 -8l-255 -10 259 0 -5 10zm222 -13l-108 -4 -13 -14 126 0c-2,6 -3,12 -5,18zm-212 -8l-271 -10 254 0 2 2 17 5 -2 3zm218 -13l-141 -5 -5 -1 -27 -7 -23 -4 -20 6 -7 -8 227 0c-1,6 -2,13 -4,19zm-247 -9l-247 -9 224 0 18 4 5 5zm251 -12l-246 -9 1 -10 247 0c0,6 -1,13 -2,19zm-303 -11l-197 -7 178 0 3 4 6 0 0 -4 6 0 4 7zm33 -7l3 0 -3 3 -1 -3zm272 -3l-275 -10 -1 -5 8 -4 24 0 8 4 11 0 1 -4 224 0c0,2 0,3 0,5 0,5 0,9 0,14zm-335 -13l-167 -6 162 0 5 6zm336 -9l-221 -8 0 -1 8 -9 212 0c1,6 1,13 1,19zm-352 -13l-150 -6 145 0 4 6zm350 -8l-203 -8 9 -11 191 0c1,6 2,12 3,19zm-356 -13l-140 -5 140 0 0 5zm353 -8l-178 -7 23 -12 150 0c2,6 3,12 5,18zm-353 -13l-135 -5 135 0 0 0 0 5zm347 -9l-112 -4 1 -7 -7 -7 112 0c2,6 4,12 6,18zm-358 -14l-118 -4 115 0 3 4zm350 -9l-119 -4 -13 -13 124 0c3,6 5,11 8,17zm-364 -14l-20 -1 16 -3 2 0 2 4zm-84 -3l-10 0 9 0 1 0zm437 -5l-66 -2 8 -12 19 -2 29 0c3,5 7,11 9,16zm-82 -3l-45 -2 -6 -12 36 0 15 13zm-106 -4l-28 -1 -1 -8 31 0 -2 9zm80 -19l-74 -3 -2 0 0 0 -13 0 2 -8 25 0 0 0 16 7 11 3 13 -7 -3 -3 20 0 3 10 2 2zm-9 -23l-27 -1 -10 -10 33 0 0 0 4 11zm-53 -2l-22 -1 2 -7 20 8zm-171 -6l-59 -2 67 0 -3 2 -5 1zm206 -15l-31 -1 0 -8 7 0 17 3 6 6zm-112 -4l-127 -5 130 0 -3 5zm79 -20l-21 -1 8 -6 21 0 -4 3 -3 4zm-56 -2l-33 -1 -2 -3 39 0 -6 3 1 1zm-69 -3l-48 -2 50 0c-1,1 -1,1 -2,2zm14 -2l6 0 -3 1 -3 -1z"/>
  <path class="fil1" d="M4198 1218l12 -82 4 2c50,19 86,28 107,28 8,0 16,-2 21,-6 6,-4 9,-9 9,-16 0,-11 -11,-24 -33,-41 -13,-10 -23,-18 -31,-24 -23,-21 -39,-38 -47,-52 -8,-14 -12,-29 -12,-45 0,-32 12,-58 37,-78 24,-20 56,-30 94,-30 19,0 37,3 56,8 19,5 38,13 58,23l-6 86c-21,-10 -41,-19 -58,-24 -17,-6 -31,-9 -41,-9 -8,0 -14,2 -20,5 -5,4 -8,8 -8,14 0,11 13,26 38,45 13,10 23,18 30,24 19,16 33,31 40,44 7,13 11,28 11,46 0,33 -12,61 -37,83 -25,22 -57,33 -95,33 -20,0 -42,-3 -63,-8 -22,-5 -44,-14 -65,-25zm-2841 -295c0,-14 -7,-33 -15,-41l128 0 0 0 -7 51 1 -1 1 -1 1 -1 1 -1 1 -1 1 -1 0 0 1 -1 0 0 1 -1 0 0 1 -1 0 0 1 -1 0 0 1 -1 0 0 1 -1 0 0 1 -1 0 0 1 -1 0 0 1 -1 0 0 1 -1 0 0 1 -1 0 0 1 -1 0 0 1 -1 0 0 1 -1 0 0 1 -1 0 0 1 -1 0 0 1 -1 0 0 1 -1 0 0 1 -1 0 0 1 -1 0 0 1 -1 0 0 1 -1 0 0 1 -1 0 0 1 -1 0 0 1 -1 0 0 1 -1 0 0 1 -1 0 0 1 -1 0 0 1 -1 0 0 1 -1 0 0 1 -1 0 0 1 -1 0 0 1 -1 0 0 1 -1 0 0 1 -1 0 0 1 -1 0 0 1 -1 0 0 1 -1 0 0 1 -1 0 0 1 -1 0 0 1 -1 0 0 1 -1 0 0 1 -1 0 0 1 -1 0 0 1 -1 0 0 1 -1 0 0 1 0 0 0 1 0 1 0 1 0 1 0 1 0 1 0 1 0 1 0 1 0 1 0 1 0 1 0 1 0 1 0 1 0 1 0 1 0 1 0 1 0 1 0 1 0 1 0 1 0 1 0 1 0 1 0 1 0 1 0 1 0 1 0 1 0 1 0 0 0 1 0 0 0 1 0 0 0 1 0 0 0 1 0 0 0 1 0 0 0 1 0 0 0 1 0 0 0 1 0 1 0 1 0 1 0 1 0 1 0 1 0 1 0 1 0 1 0 1 0 1 0 1 0 1 0 1 0 1 0 1 0 1 0 1 0 1 0 1 0 1 0 1 0 1 0 1 0 1 0 1 0 1 0 1 0 1 0 1 0 1 0 1 0 1 0 1 0 1 0 0 0 0 0 0 0 0 0 0 0 0 0 0 0 0 0 0 0 0 0 0 0 0 0 0 0 0 0 0 0 0 0 0 0 0 0 0 0 0 0 0 0 0 0 0 0 0 0 0 0 0 0 0 0 0 0 0 0 0 0 0 0 0 0 0 0 0 0 0 0 0 0 0 0 0 0 0 0 0 0 0 0 0 0 0 0 0 0 0 0 0 0 0 0 0 0 0 0 0 0 0 0 0 0 0 0 0 0 0 0 0 0 0 0 0 0 0 0 0 0 0 0 0 0 0 0 0 0 0 0 0 0 1 0 0 0 0 0 0 0 1 0 0 0 1 0 0 0 0 0 0 0 1 0 0 0 1 0 0 0 1 0 0 0 1 0 0 0 1 0 0 0 1 0 0 0 1 0 0 0 1 0 0 0 1 0 0 0 1 0 1 0 1 0 1 0 1 0 1 0 1 0 1 0 1 0 1 0 1 0 1 0 1 0 1 0 1 0 1 0 0 0 1 0 0 0 1 0 0 0 1 0 0 0 1 0 0 0 1 0 0 0 1 0 0 0c8,3 17,8 26,14l0 0 1 0 0 0 1 0 0 0 1 0 0 0 1 0 0 0 1 0 0 0 1 0 0 0 1 0 0 0 1 0 -52 112 0 0 0 0 0 0 0 0 0 0 0 0 0 0 0 0 0 0 0 0 0 0 0 0 0 0 0 0 0 0 0 0 0 0 0 0 0 0 0 0 0 0 0 0 0 0 0 0 0 0 0 0 0 0 0 0 0 0 0 0 0 0 0 0 0 0c-7,-6 -13,-12 -19,-15 -2,-1 -4,-2 -6,-3l0 0c-6,-3 -12,-4 -17,-4l0 0 0 0 0 0 0 0 0 0 0 0 0 0 0 0 0 0 0 0 0 0 0 0 0 0 0 0 0 0 0 0 0 0 0 0 0 0 0 0 0 0 0 0 0 0 0 0 -1 0 0 0 0 0 0 0 -1 0 0 0 0 0 0 0 -1 0 0 0 0 0 0 0 -1 0 0 0 -1 0 0 0 -1 0 0 0 0 0 0 0 -1 0 0 0 -1 0 0 0 -1 0 0 0 -1 0 0 0 -1 0 0 0 0 0 0 0 -1 0 0 0 -1 0 0 0 -1 0 0 0 -1 0 0 0 -1 0 0 0 -1 0 0 0 -1 0 0 0 -1 0 0 0 -1 0 0 0 -1 0 0 0 -1 0 0 0 -1 0 0 0 -1 0 0 0 -1 0 0 0 -1 0 0 0 -1 0 0 0 -1 0 0 0 -1 0 0 0 -1 0 0 0 -1 0 0 0 -1 0 0 0 -1 0 0 0 -1 0 0 0 -1 0 0 0 -1 0 0 0 -1 0 0 0 -1 0 0 0 -1 0 0 0 -1 0 0 0 -1 0 0 0 -1 0 0 0 0 0 0 0 -1 0 0 0 -1 0 0 0 -1 0 0 0 -1 0 0 0 -1 0 0 0 -1 0 0 0 -1 0 0 0 -1 0 0 0 -1 0 0 0 -1 0 0 0 -1 0 0 0 -1 0 0 0 -1 0 0 0 -1 0 0 0 -1 0 0 0 -1 0 0 0 -1 0 0 0 -1 0 0 0 -1 0 0 0 -1 0 0 0 -1 0 0 0 -1 1 0 0 -1 1 -1 1 -1 1 -1 1 -1 1 -1 1 -1 1 -1 1 -1 1 -1 1 -1 1 -1 1 -1 1 -1 1 -1 1 -1 1 -1 1 -1 1 -1 1 0 0 -1 1 0 0 -1 1 0 0 -1 1 0 0 -1 1 0 0 -1 1 0 0 -1 1 0 0 -1 1 0 0 -1 1 0 0 -1 1 0 0 -1 1 0 0 -1 1 0 0 -1 1 0 0 -1 1 0 0 -1 1 0 0 -1 1 0 0 -1 1 0 0 -1 1 0 0 -1 1 0 0 -1 1 0 0 -1 1 0 0 -1 1 0 0 -1 1 0 0 -1 1 0 0 -1 1 0 0 -1 1 0 0 -1 1 0 0 -1 1 0 0 -33 219 -107 0 49 -327zm438 39c-25,0 -47,12 -65,35 -18,23 -27,52 -27,86 0,27 6,47 19,63 12,15 29,23 50,23 25,0 47,-12 65,-35 18,-23 26,-52 26,-86 0,-26 -6,-47 -19,-63 -12,-16 -29,-24 -49,-24zm-203 119c0,-59 20,-108 60,-148 40,-40 90,-59 150,-59 51,0 92,16 124,48 32,32 48,73 48,124 0,61 -20,111 -60,152 -40,40 -90,61 -150,61 -53,0 -94,-16 -125,-48 -31,-32 -46,-75 -46,-129zm-557 91c2,0 5,0 8,0 3,0 6,0 8,0 47,0 83,-11 108,-33 26,-22 38,-53 38,-93 0,-25 -5,-45 -16,-60 -11,-14 -25,-22 -44,-22 -14,0 -27,3 -39,10 -13,7 -25,18 -38,32l-26 163zm-290 -209c-25,0 -47,12 -65,35 -18,23 -27,52 -27,86 0,27 6,47 19,63 12,15 29,23 50,23 25,0 47,-12 65,-35 18,-23 26,-52 26,-86 0,-26 -6,-47 -19,-63 -12,-16 -29,-24 -49,-24zm-203 119c0,-59 20,-108 60,-148 40,-40 90,-59 150,-59 51,0 92,16 124,48 32,32 48,73 48,124 0,61 -20,111 -60,152 -40,40 -90,61 -150,61 -53,0 -94,-16 -125,-48 -31,-32 -46,-75 -46,-129zm456 -374l-116 0 114 16 -77 520c23,5 45,9 66,12 22,3 43,4 64,4 83,0 147,-19 191,-56 44,-38 66,-92 66,-163 0,-49 -12,-88 -37,-118 -25,-30 -57,-45 -96,-45 -16,0 -32,3 -48,9 -16,6 -33,15 -50,27l31 -204 -97 0 -11 0zm-520 513c-27,13 -54,23 -83,30 -29,7 -58,10 -87,10 -76,0 -137,-24 -185,-71 -48,-47 -71,-108 -71,-183 0,-44 8,-84 24,-121 16,-37 39,-70 71,-99 33,-31 71,-53 114,-67 43,-14 93,-22 151,-22 25,0 49,2 73,5 24,3 47,8 69,15l-15 99c-23,-6 -45,-10 -65,-13 -20,-3 -40,-4 -58,-4 -75,0 -134,19 -178,56 -44,38 -66,88 -66,151 0,46 14,82 42,108 28,26 66,39 116,39 29,0 58,-6 88,-17 29,-12 57,-28 82,-50l-21 132zm2505 -403l-118 0 116 16 -12 82c-79,15 -144,34 -199,61 -22,-32 -46,-64 -73,-95l-70 0 -24 0 -101 0 114 16c30,40 58,80 85,123 -63,50 -111,120 -153,224l124 0c9,-43 40,-90 83,-134 24,43 46,88 67,134l95 0c-28,-65 -59,-129 -96,-191 44,-32 92,-58 140,-72l-66 440 105 0 26 -176 3 0c21,2 36,3 45,3 67,0 122,-21 164,-63 42,-42 63,-97 63,-163 0,-42 -15,-78 -44,-106 -30,-28 -67,-42 -112,-42 -10,0 -21,1 -32,3 -11,2 -22,3 -34,7l11 -67 -98 0 -8 0zm-773 -108l-114 0 111 16 -78 520 394 0 13 -88 -279 0 21 -140 192 0 14 -91 -193 0 18 -122 218 0 14 -95 -321 0 -12 0zm828 447c5,1 11,2 16,2 6,1 11,1 17,1 36,0 64,-11 85,-34 20,-23 31,-54 31,-94 0,-25 -7,-46 -20,-60 -13,-15 -32,-22 -55,-22 -7,0 -14,1 -21,2 -7,1 -15,4 -23,7l-30 199zm259 88l48 -319c2,-14 -6,-36 -15,-44l126 0 -7 50c20,-23 37,-38 48,-46 12,-8 24,-11 36,-11 10,0 20,2 31,6 11,4 23,10 35,18l-51 111c-10,-10 -19,-18 -27,-23 -8,-5 -16,-7 -23,-7 -10,0 -21,4 -32,12 -11,8 -22,21 -32,37l-32 216 -105 0zm399 -231l123 0 0 -7c0,-19 -4,-33 -13,-43 -9,-10 -22,-15 -38,-15 -17,0 -32,5 -44,16 -12,11 -21,27 -28,49zm187 210c-19,10 -41,17 -64,22 -23,5 -47,7 -72,7 -54,0 -97,-16 -129,-47 -32,-31 -48,-74 -48,-129 0,-60 18,-109 55,-146 37,-37 85,-56 145,-56 49,0 86,14 113,42 27,28 40,68 40,119 0,6 0,13 -1,20 0,7 -1,13 -2,20l-241 0c0,1 0,3 0,6 0,2 0,4 0,5 0,26 8,46 23,60 15,14 38,21 67,21 17,0 36,-3 57,-9 21,-6 46,-16 75,-30l-19 95zm45 -4l12 -82 4 2c50,19 86,28 107,28 8,0 16,-2 21,-6 6,-4 9,-9 9,-16 0,-11 -11,-24 -33,-41 -13,-10 -23,-18 -31,-24 -23,-21 -39,-38 -47,-52 -8,-14 -12,-29 -12,-45 0,-32 12,-58 37,-78 24,-20 56,-30 94,-30 19,0 37,3 56,8 19,5 38,13 58,23l-6 86c-21,-10 -41,-19 -58,-24 -17,-6 -31,-9 -41,-9 -8,0 -14,2 -20,5 -5,4 -8,8 -8,14 0,11 13,26 38,45 13,10 23,18 30,24 19,16 33,31 40,44 7,13 11,28 11,46 0,33 -12,61 -37,83 -25,22 -57,33 -95,33 -20,0 -42,-3 -63,-8 -22,-5 -44,-14 -65,-25z"/>
 </g>
</svg>
