<?xml version="1.0" encoding="UTF-8"?>
<!DOCTYPE svg PUBLIC "-//W3C//DTD SVG 1.1//EN" "http://www.w3.org/Graphics/SVG/1.1/DTD/svg11.dtd">
<!-- Creator: CorelDRAW X6 -->
<svg xmlns="http://www.w3.org/2000/svg" xml:space="preserve" width="165.337mm" height="67.0322mm" version="1.1" style="shape-rendering:geometricPrecision; text-rendering:geometricPrecision; image-rendering:optimizeQuality; fill-rule:evenodd; clip-rule:evenodd"
viewBox="0 0 16534 6703"
 xmlns:xlink="http://www.w3.org/1999/xlink">
 <defs>
  <style type="text/css">
   <![CDATA[
    .fil0 {fill:none}
    .fil2 {fill:#2B2A29}
    .fil1 {fill:#F83624}
   ]]>
  </style>
 </defs>
 <g id="Capa_x0020_1">
  <metadata id="CorelCorpID_0Corel-Layer"/>
  <rect class="fil0" width="16534" height="6703"/>
  <g id="_703113000">
   <path class="fil1" d="M3666 2285c0,-71 -52,-129 -120,-140 -312,-60 -758,-123 -1343,-123 -462,0 -914,44 -1349,126 -66,14 -112,71 -112,140 0,16 3,33 8,47 107,301 235,591 380,870l129 -684 733 0 107 668c5,33 41,30 57,3l353 -670 739 0 -211 1119c249,-410 457,-845 621,-1302l0 0c5,-16 8,-33 8,-49l0 -3zm-1048 780c3,-22 -30,-30 -47,-3l-438 843c-27,47 -71,44 -71,44l-238 0c0,0 -49,0 -57,-49l-129 -840c-5,-36 -44,-33 -49,0l-137 709c194,306 410,596 648,870l0 0c25,27 63,44 101,44 38,0 77,-16 101,-44l0 0c192,-219 367,-449 531,-692l-386 0 167 -884 3 3z"/>
   <path class="fil2" d="M6690 2837c-38,0 -36,36 -36,36l0 181c0,0 -3,36 33,36l443 0 0 293 -441 0c-41,0 -38,38 -38,38l0 183c0,0 -3,38 38,38l476 0 0 315 -884 0 0 -1431 884 0 0 315 -476 0 0 -3z"/>
   <path class="fil2" d="M9705 3354l-104 -317c-11,-30 -52,-27 -63,3l-104 312c-8,30 5,57 41,57l189 0c36,0 49,-27 41,-52l0 -3zm-375 347c-22,0 -27,19 -27,19l-90 230 -394 0 550 -1431 405 0 539 1431 -397 0 -85 -230c0,0 -5,-19 -25,-19l-473 0 -3 0z"/>
   <path class="fil2" d="M10895 3954l-372 0 0 -1067c0,-47 -44,-47 -44,-47l-287 0 0 -315 1034 0 0 315 -285 0c-49,0 -47,44 -47,44l0 1073 0 -3z"/>
   <path class="fil2" d="M11699 3212c0,246 183,427 405,427 222,0 405,-181 405,-427 0,-197 -183,-378 -405,-378 -222,0 -405,181 -405,378zm1196 -3c0,462 -331,788 -791,788 -460,0 -791,-326 -791,-788 0,-432 380,-736 791,-736 410,0 791,304 791,736z"/>
   <path class="fil2" d="M13070 2523l372 0 539 780c16,25 52,25 52,-3l0 -777 372 0 0 1431 -372 0 -544 -791c-16,-22 -47,-11 -47,16l0 774 -372 0 0 -1431 0 0z"/>
   <path class="fil2" d="M15023 2837c-38,0 -36,36 -36,36l0 181c0,0 -3,36 33,36l443 0 0 293 -441 0c-41,0 -38,38 -38,38l0 183c0,0 -3,38 38,38l476 0 0 315 -884 0 0 -1431 884 0 0 315 -476 0 0 -3z"/>
   <path class="fil2" d="M4542 2523l402 0 254 698c11,25 41,22 52,0l268 -698 405 0 170 1431 -372 0 -71 -733c-3,-27 -38,-27 -47,0l-295 700c0,0 -11,33 -47,33l-85 0c-33,0 -47,-36 -47,-36l-279 -706c-14,-27 -44,-22 -47,3l-88 739 -369 0 197 -1431 -3 0z"/>
   <path class="fil2" d="M8222 3152l610 0c0,0 11,131 -5,252 -16,120 -55,222 -123,312 -142,194 -339,282 -580,282 -449,0 -763,-306 -763,-755 0,-465 315,-772 777,-772 293,0 523,134 646,399l-353 148c-52,-137 -159,-227 -309,-227 -244,0 -372,233 -372,451 0,222 134,449 378,449 148,0 279,-68 326,-202 5,-19 -3,-47 -36,-47l-192 0c-44,0 -44,-44 -44,-44l0 -205c0,0 -3,-41 44,-41l-3 0z"/>
  </g>
 </g>
</svg>
