<?xml version="1.0" encoding="UTF-8"?>
<!DOCTYPE svg PUBLIC "-//W3C//DTD SVG 1.1//EN" "http://www.w3.org/Graphics/SVG/1.1/DTD/svg11.dtd">
<!-- Creator: CorelDRAW X6 -->
<svg xmlns="http://www.w3.org/2000/svg" xml:space="preserve" width="165.337mm" height="67.033mm" version="1.1" style="shape-rendering:geometricPrecision; text-rendering:geometricPrecision; image-rendering:optimizeQuality; fill-rule:evenodd; clip-rule:evenodd"
viewBox="0 0 5358 2172"
 xmlns:xlink="http://www.w3.org/1999/xlink">
 <defs>
  <style type="text/css">
   <![CDATA[
    .fil0 {fill:none}
    .fil1 {fill:#898989}
    .fil2 {fill:#666666}
   ]]>
  </style>
 </defs>
 <g id="Capa_x0020_1">
  <metadata id="CorelCorpID_0Corel-Layer"/>
  <rect class="fil0" width="5358" height="2172"/>
  <path class="fil1" d="M1185 934c-12,0 -11,12 -11,12l0 60c0,0 -1,12 11,12l141 0 0 98 -140 0c-13,0 -12,13 -12,13l0 61c0,0 -1,12 12,12l151 0 0 105 -282 0 0 -479 282 0 0 105 -152 0zm488 106l194 0c0,0 4,44 -2,84 -5,40 -18,74 -40,105 -45,65 -109,94 -185,94 -143,0 -243,-102 -243,-253 0,-155 100,-258 247,-258 94,0 166,44 206,134l-113 49c-16,-46 -51,-76 -99,-76 -78,0 -119,78 -119,151 0,74 42,150 120,150 47,0 89,-23 104,-68 2,-6 -1,-15 -11,-15l-61 0c-14,0 -14,-15 -14,-15l0 -69c0,0 -1,-14 14,-14zm-1173 -211l128 0 81 234c3,8 13,7 16,0l86 -234 129 0 54 479 -119 0 -23 -246c-1,-9 -12,-9 -15,0l-94 235c0,0 -4,11 -14,11l-27 0c-10,0 -15,-12 -15,-12l-89 -236c-4,-9 -14,-7 -15,1l-28 247 -118 0 62 -479zm1645 279l-33 -106c-3,-10 -17,-9 -20,1l-33 104c-3,10 2,19 13,19l60 0c11,0 16,-9 13,-17zm-119 117c-7,0 -9,6 -9,6l-29 77 -126 0 175 -479 129 0 172 479 -126 0 -27 -77c0,0 -1,-6 -8,-6l-151 0z"/>
  <path class="fil2" d="M3080 1108l-33 -106c-3,-10 -17,-9 -20,1l-33 104c-3,10 2,19 13,19l60 0c11,0 16,-9 13,-17zm198 61l136 -24c11,39 41,58 88,58 37,0 55,-10 55,-29 0,-10 -4,-18 -13,-24 -8,-6 -24,-11 -46,-15 -84,-16 -137,-37 -161,-63 -24,-26 -36,-56 -36,-91 0,-45 17,-83 51,-112 25,-22 57,-35 98,-41l0 -16c0,-14 11,-25 25,-25l29 0c14,0 25,11 25,25l0 14c81,7 135,46 163,116l-121 37c-13,-32 -38,-48 -77,-48 -32,0 -48,10 -48,30 0,9 4,16 11,21 7,5 21,9 42,14 57,12 98,22 122,32 24,9 44,25 60,48 16,23 24,49 24,80 0,48 -20,88 -59,118 -31,24 -70,38 -117,43l0 13c0,14 -11,25 -25,25l-29 0c-14,0 -25,-11 -25,-25l0 -14c-92,-11 -150,-59 -174,-144zm891 -339l0 478 -126 0 0 -170c0,-3 -8,-16 -16,-16l-117 0c-7,0 -16,12 -16,16l0 170 -131 0 0 -478 131 0 0 160c0,6 10,16 16,16l116 0c9,0 16,-14 16,-16l0 -160 126 0zm-1580 494l-2 0 0 0 0 0c-1,0 -1,0 -2,0 -1,0 -2,0 -4,0 -140,-3 -238,-104 -238,-253 0,-1 0,-2 0,-2 0,-1 0,-2 0,-2l0 0c0,-18 2,-36 5,-53 21,-121 113,-200 239,-200l2 0 1 0c94,0 166,44 206,134l-101 44 0 0c-3,2 -12,2 -16,-6 0,0 0,0 0,0 -18,-39 -50,-65 -94,-65 -70,0 -110,63 -117,128 0,6 -1,11 -1,17 0,73 41,151 119,151 43,0 76,-26 94,-65 0,0 0,0 0,0 4,-8 12,-8 16,-6l0 0 101 44c-39,89 -112,134 -205,134l0 0 0 0 -1 0 -1 0zm372 -99c-7,0 -9,6 -9,6l-29 77 -126 0 175 -479 129 0 172 479 -126 0 -27 -77c0,0 -1,-6 -8,-6l-151 0z"/>
  <polygon class="fil1" points="4455,1422 4696,1662 4999,1359 5000,877 "/>
  <polygon class="fil2" points="4455,814 4695,574 4998,877 4999,1359 "/>
  <path class="fil1" d="M2223 1470c0,5 -2,8 -7,9 -2,0 -6,1 -13,1l0 108c0,8 -4,12 -11,12 -8,0 -11,-4 -11,-12l0 -108c-7,0 -12,0 -13,-1 -5,-1 -7,-4 -7,-9 0,-5 2,-8 7,-9 2,0 6,-1 13,-1 0,-1 0,-4 -1,-9 0,-5 -1,-9 -1,-12 0,-15 4,-22 13,-22 8,0 13,7 13,22 0,3 0,7 -1,12 0,5 -1,8 -1,9 7,0 12,0 13,1 5,1 7,4 7,9zm127 75c0,17 -5,31 -14,41 -10,10 -23,15 -40,15 -17,0 -31,-5 -40,-15 -10,-10 -14,-23 -14,-41l0 -74c0,-8 4,-12 11,-12 8,0 13,8 13,24 0,5 0,13 -1,24 -1,12 -1,20 -1,26 0,31 11,47 33,47 22,0 33,-16 33,-47 0,-6 0,-15 -1,-26 -1,-12 -1,-20 -1,-24 0,-16 4,-24 13,-24 8,0 11,4 11,12l0 74zm205 43c0,8 -4,12 -11,12 -5,0 -9,-2 -10,-6 -1,-2 -1,-7 -1,-13l0 0c-7,13 -19,19 -37,19 -18,0 -33,-7 -44,-22 -10,-14 -15,-30 -15,-49 0,-19 5,-35 15,-48 11,-15 26,-22 44,-22 16,0 28,6 37,19l0 0c0,-1 0,-7 -1,-17 -1,-10 -1,-19 -1,-26 0,-24 5,-37 14,-37 8,0 11,4 11,12l0 179zm-20 -59c0,-14 -3,-25 -8,-34 -7,-11 -16,-17 -29,-17 -13,0 -22,6 -29,17 -6,9 -8,21 -8,34 0,14 3,25 8,34 7,11 16,17 29,17 13,0 22,-6 29,-17 6,-9 8,-21 8,-34zm76 -104c0,4 -1,7 -4,10 -3,3 -6,4 -10,4 -4,0 -7,-1 -10,-4 -3,-3 -4,-6 -4,-10 0,-4 1,-7 4,-10 3,-3 6,-4 10,-4 4,0 7,1 10,4 3,3 4,6 4,10zm-2 163c0,8 -4,12 -11,12 -8,0 -11,-4 -11,-12l0 -118c0,-8 4,-12 11,-12 8,0 11,4 11,12l0 118zm132 0c0,8 -4,12 -11,12 -8,0 -13,-8 -13,-25 0,-4 0,-12 1,-23 1,-11 1,-20 1,-25 0,-15 -2,-26 -6,-34 -5,-10 -14,-14 -27,-14 -13,0 -21,5 -27,14 -4,8 -6,19 -6,34 0,6 0,14 1,25 1,11 1,19 1,23 0,17 -4,25 -13,25 -8,0 -11,-4 -11,-12l0 -118c0,-8 4,-12 11,-12 5,0 8,2 10,6 1,2 2,6 2,12l1 1c9,-12 22,-18 38,-18 15,0 27,5 35,15 8,10 13,23 13,38l0 77zm133 -62c0,8 -4,12 -13,12l-85 0c0,12 4,22 11,30 7,8 17,12 29,12 8,0 16,-2 23,-5 4,-2 9,-5 14,-9 4,-3 7,-5 9,-5 5,0 8,3 8,10 0,8 -8,15 -23,21 -13,5 -23,8 -32,8 -20,0 -36,-7 -47,-21 -10,-13 -16,-30 -16,-50 0,-19 5,-36 16,-49 12,-14 27,-22 45,-22 18,0 32,7 43,21 10,13 16,29 16,46zm-23 -5c0,-12 -3,-21 -9,-29 -7,-9 -16,-13 -27,-13 -12,0 -22,4 -29,12 -6,8 -9,18 -10,30l75 0zm102 -51c0,5 -4,9 -11,12 -11,4 -18,7 -21,10 -8,6 -11,16 -11,30l0 66c0,8 -4,12 -11,12 -8,0 -11,-4 -11,-12l0 -118c0,-8 4,-12 11,-12 6,0 9,3 11,9 0,2 1,7 1,15l1 0c3,-6 7,-12 12,-16 6,-5 12,-8 19,-8 8,0 13,4 13,12zm132 59c0,19 -5,36 -15,49 -11,15 -26,22 -45,22 -19,0 -34,-7 -45,-22 -10,-13 -15,-30 -15,-49 0,-19 5,-35 15,-49 11,-15 26,-22 45,-22 19,0 34,7 45,22 10,13 15,30 15,49zm-23 0c0,-14 -3,-25 -8,-34 -7,-11 -16,-17 -29,-17 -13,0 -22,6 -29,17 -6,9 -8,21 -8,34 0,14 3,25 8,34 7,11 16,17 29,17 13,0 22,-6 29,-17 6,-9 8,-21 8,-34zm215 -3c0,8 -4,12 -13,12l-85 0c0,12 4,22 11,30 7,8 17,12 29,12 8,0 16,-2 23,-5 4,-2 9,-5 14,-9 4,-3 7,-5 9,-5 5,0 8,3 8,10 0,8 -8,15 -23,21 -13,5 -23,8 -32,8 -20,0 -36,-7 -47,-21 -10,-13 -16,-30 -16,-50 0,-19 5,-36 16,-49 12,-14 27,-22 45,-22 18,0 32,7 43,21 10,13 16,29 16,46zm-23 -5c0,-12 -3,-21 -9,-29 -7,-9 -16,-13 -27,-13 -12,0 -22,4 -29,12 -6,8 -9,18 -10,30l75 0zm144 67c0,8 -4,12 -11,12 -8,0 -13,-8 -13,-25 0,-4 0,-12 1,-23 1,-11 1,-20 1,-25 0,-15 -2,-26 -6,-34 -5,-10 -14,-14 -27,-14 -13,0 -21,5 -27,14 -4,8 -6,19 -6,34 0,6 0,14 1,25 1,11 1,19 1,23 0,17 -4,25 -13,25 -8,0 -11,-4 -11,-12l0 -118c0,-8 4,-12 11,-12 5,0 8,2 10,6 1,2 2,6 2,12l1 1c9,-12 22,-18 38,-18 15,0 27,5 35,15 8,10 13,23 13,38l0 77zm194 -62c0,8 -4,12 -13,12l-85 0c0,12 4,22 11,30 7,8 17,12 29,12 8,0 16,-2 23,-5 4,-2 9,-5 14,-9 4,-3 7,-5 9,-5 5,0 8,3 8,10 0,8 -8,15 -23,21 -13,5 -23,8 -32,8 -20,0 -36,-7 -47,-21 -10,-13 -16,-30 -16,-50 0,-19 5,-36 16,-49 12,-14 27,-22 45,-22 18,0 32,7 43,21 10,13 16,29 16,46zm-23 -5c0,-12 -3,-21 -9,-29 -7,-9 -16,-13 -27,-13 -12,0 -22,4 -29,12 -6,8 -9,18 -10,30l75 0zm68 67c0,8 -4,12 -11,12 -8,0 -11,-4 -11,-12l0 -179c0,-8 4,-12 11,-12 8,0 11,4 11,12l0 179zm207 1c0,3 -1,6 -3,8 -2,2 -5,3 -8,3 -5,0 -8,-2 -10,-7 -1,-2 -1,-7 -1,-14l0 0c-10,14 -22,21 -38,21 -19,0 -34,-7 -45,-22 -10,-13 -16,-30 -16,-49 0,-19 5,-35 16,-49 11,-15 26,-22 45,-22 14,0 27,6 38,18l0 0c0,-6 0,-10 1,-12 1,-4 4,-6 9,-6 3,0 6,1 8,3 2,2 3,5 3,8l0 120zm-21 -60c0,-14 -3,-25 -8,-34 -7,-11 -17,-17 -29,-17 -13,0 -22,6 -29,17 -6,9 -8,21 -8,34 0,14 3,25 8,34 7,11 16,17 29,17 13,0 22,-6 29,-17 5,-9 8,-21 8,-34zm136 -53c0,3 -1,5 -3,7 -2,2 -4,3 -7,3 -2,0 -6,-1 -12,-4 -6,-2 -11,-4 -16,-4 -13,0 -23,5 -30,16 -6,10 -9,21 -9,35 0,13 3,25 9,35 7,11 17,16 30,16 5,0 11,-1 17,-4 6,-3 9,-4 11,-4 6,0 9,3 9,10 0,6 -5,11 -14,15 -7,2 -14,4 -22,4 -19,0 -35,-7 -46,-21 -10,-13 -16,-30 -16,-50 0,-20 5,-37 16,-50 11,-14 27,-21 46,-21 8,0 15,1 22,3 10,3 15,8 15,14zm75 -6c0,5 -2,8 -7,9 -2,0 -6,1 -13,1l0 108c0,8 -4,12 -11,12 -8,0 -11,-4 -11,-12l0 -108c-7,0 -12,0 -13,-1 -5,-1 -7,-4 -7,-9 0,-5 2,-8 7,-9 2,0 6,-1 13,-1 0,-1 0,-4 -1,-9 0,-5 -1,-9 -1,-12 0,-15 4,-22 13,-22 8,0 13,7 13,22 0,3 0,7 -1,12 0,5 -1,8 -1,9 7,0 12,0 13,1 5,1 7,4 7,9zm132 59c0,19 -5,36 -15,49 -11,15 -26,22 -45,22 -19,0 -34,-7 -45,-22 -10,-13 -15,-30 -15,-49 0,-19 5,-35 15,-49 11,-15 26,-22 45,-22 19,0 34,7 45,22 10,13 15,30 15,49zm-23 0c0,-14 -3,-25 -8,-34 -7,-11 -16,-17 -29,-17 -13,0 -22,6 -29,17 -6,9 -8,21 -8,34 0,14 3,25 8,34 7,11 16,17 29,17 13,0 22,-6 29,-17 6,-9 8,-21 8,-34z"/>
 </g>
</svg>
