<?xml version="1.0" encoding="UTF-8"?>
<!DOCTYPE svg PUBLIC "-//W3C//DTD SVG 1.1//EN" "http://www.w3.org/Graphics/SVG/1.1/DTD/svg11.dtd">
<!-- Creator: CorelDRAW X6 -->
<svg xmlns="http://www.w3.org/2000/svg" xml:space="preserve" width="165.337mm" height="67.033mm" version="1.1" style="shape-rendering:geometricPrecision; text-rendering:geometricPrecision; image-rendering:optimizeQuality; fill-rule:evenodd; clip-rule:evenodd"
viewBox="0 0 4067 1649"
 xmlns:xlink="http://www.w3.org/1999/xlink">
 <defs>
  <style type="text/css">
   <![CDATA[
    .fil0 {fill:none}
    .fil3 {fill:#FEFEFE}
    .fil1 {fill:gray}
    .fil2 {fill:#999999;fill-rule:nonzero}
   ]]>
  </style>
 </defs>
 <g id="Capa_x0020_1">
  <metadata id="CorelCorpID_0Corel-Layer"/>
  <rect class="fil0" width="4067" height="1649"/>
  <path class="fil1" d="M469 487c18,-14 40,-23 64,-26l439 0c25,4 40,18 45,42l0 444c-3,30 -11,51 -29,69l-162 161c-17,12 -37,18 -59,20l-436 0c-27,-2 -42,-17 -48,-42l0 -436c1,-25 15,-54 36,-78l149 -154zm336 543c17,1 32,-5 43,-16 11,-11 17,-25 17,-42 0,-22 -22,-42 -65,-60 -3,-1 -5,-2 -7,-3 0,0 0,0 0,0 -57,-24 -86,-55 -86,-93 0,-23 8,-43 24,-59 16,-16 37,-24 62,-24 13,0 26,2 39,7 14,5 22,7 26,7 4,0 8,-1 12,-3 4,-2 6,-3 7,-3 3,0 5,1 6,2 1,1 2,4 2,7 0,2 0,4 0,7 0,3 0,6 0,8 0,7 1,17 3,30 2,13 3,22 3,26 0,4 -1,6 -2,7 -1,1 -3,2 -5,2 -4,0 -8,-5 -11,-14 -3,-9 -7,-18 -12,-27 -7,-12 -18,-22 -30,-29 -13,-7 -26,-11 -40,-11 -14,0 -26,4 -35,12 -9,8 -14,18 -14,31 0,12 4,22 13,30 9,8 25,17 48,26 3,1 7,2 12,5 29,11 47,21 57,30 9,8 15,18 19,30 4,12 7,24 7,38 0,29 -9,53 -27,71 -18,18 -41,28 -69,27 -39,-1 -75,-4 -103,-7l-21 -1 -38 -2c-3,0 -7,0 -12,0 -12,0 -22,0 -32,1l-67 4c-7,1 -12,1 -14,1 -6,0 -9,-3 -9,-8 0,-4 1,-7 3,-9 2,-1 6,-2 12,-3 16,-1 28,-7 36,-17 9,-10 13,-25 13,-43l0 -14 0 -269c0,-16 -9,-24 -26,-24 -40,0 -68,3 -83,9 -11,4 -18,10 -21,15 -4,5 -8,19 -14,41l-2 9c-2,8 -6,12 -10,12 -7,0 -10,-3 -10,-9 0,-6 1,-14 3,-24l3 -26 4 -27 2 -19c1,-8 5,-12 13,-12 2,0 5,0 10,1 8,1 19,1 34,1l62 1 74 1c47,0 98,-1 151,-4 11,0 17,-1 20,-1 11,0 17,5 18,14l2 22c0,3 1,12 3,24 1,11 2,19 2,26 0,7 -3,10 -8,10 -5,0 -8,-4 -10,-11 -4,-19 -12,-32 -24,-41 -12,-8 -29,-12 -52,-12 -31,0 -50,2 -57,7 -8,5 -11,16 -11,35l0 228c0,34 5,58 15,73 10,14 27,22 52,24 2,0 4,1 6,2 4,0 8,0 12,0 22,0 49,1 80,2z"/>
  <path class="fil2" d="M1492 669l-70 0c-7,0 -12,1 -14,3 -2,2 -3,7 -3,15l0 244 0 10c1,19 12,31 33,35 6,1 9,3 9,5 0,3 -2,5 -7,5 -2,0 -6,-1 -12,-2 -3,-1 -11,-1 -22,-1l-18 0 -19 0c-7,0 -13,0 -18,1 -9,1 -15,2 -17,2 -5,0 -7,-2 -7,-5 0,-3 3,-4 8,-5 13,-2 21,-5 26,-11 4,-5 7,-15 7,-29l0 -246 0 -7c0,-6 -1,-10 -3,-11 -2,-2 -6,-2 -12,-2l-66 0c-13,0 -23,3 -29,8 -6,5 -11,15 -14,30 -2,6 -4,10 -7,9 -3,0 -4,-2 -4,-7 0,-3 1,-10 3,-19 2,-12 4,-22 4,-29 0,-8 1,-13 3,-15 2,-2 5,-4 11,-4l267 0c9,0 15,1 16,3 2,2 3,8 3,18 0,10 0,17 1,21 1,6 1,10 1,12 0,5 -2,8 -5,8 -3,0 -5,-2 -6,-8 -2,-12 -6,-19 -10,-23 -5,-4 -14,-5 -28,-5zm121 105c30,0 55,10 77,31 21,21 32,46 32,75 0,31 -10,57 -31,78 -21,20 -47,31 -80,31 -31,0 -57,-10 -77,-30 -20,-20 -30,-45 -30,-76 0,-30 11,-56 32,-77 21,-21 47,-32 78,-32zm-6 10c-21,0 -37,8 -50,23 -13,15 -19,35 -19,60 0,31 8,58 24,79 16,21 35,32 59,32 20,0 37,-8 48,-23 12,-15 18,-35 18,-61 0,-33 -7,-59 -22,-80 -15,-20 -34,-31 -57,-31zm189 20l0 125c0,16 2,27 7,32 7,7 16,11 29,11 10,0 19,-2 25,-5l13 -6 2 -1c2,0 3,1 3,3 0,5 -7,11 -20,17 -13,6 -25,9 -36,9 -38,0 -57,-20 -57,-59l0 -125 -22 0c-4,0 -6,-1 -6,-4 0,-2 2,-5 7,-9 19,-16 34,-33 45,-49 4,-7 8,-11 9,-11 2,0 3,2 3,6l-1 43 53 0c7,0 13,-1 17,-4 3,-2 4,-3 6,-3 2,0 3,1 3,3 0,1 -1,3 -2,6l-6 14c-2,5 -5,7 -11,7l-59 0zm219 69l0 -30c0,-19 -4,-32 -11,-39 -10,-10 -23,-15 -39,-15 -22,0 -33,9 -33,27 0,5 1,12 3,18 1,3 2,5 2,8 0,3 -1,4 -5,4 -8,0 -15,-2 -21,-5 -6,-3 -9,-7 -9,-11 0,-10 6,-21 17,-33 15,-16 35,-24 59,-24 23,0 40,5 53,15 12,10 19,24 19,42l0 97c0,15 2,26 6,33 4,7 10,10 19,10 2,0 4,0 6,0 3,-1 5,-1 6,-1 3,0 4,1 4,4 0,3 -4,6 -12,9 -8,3 -15,5 -22,5 -14,0 -26,-8 -37,-25 -24,18 -46,27 -67,27 -15,0 -28,-4 -37,-13 -9,-8 -14,-20 -14,-34 0,-19 9,-34 26,-44 17,-10 47,-19 88,-25zm0 10c-26,2 -45,8 -59,17 -14,9 -21,21 -21,36 0,11 3,20 10,27 7,7 16,10 27,10 14,0 25,-5 35,-14 6,-6 9,-15 9,-28l0 -49zm132 -249l0 291c0,14 2,24 5,31 4,8 14,14 31,17 5,1 7,3 7,5 0,4 -2,6 -5,6 -1,0 -4,0 -6,-1 -3,-1 -6,-1 -11,-1l-22 0 -13 0c-16,0 -25,0 -29,1 -5,1 -8,1 -9,1 -4,0 -7,-2 -7,-5 0,-3 2,-5 7,-6 7,-2 12,-5 15,-9 3,-4 4,-9 4,-17l0 -275c0,-15 -5,-23 -16,-23l-12 1c-2,0 -3,0 -4,-1 -2,-1 -3,-2 -3,-4 0,-2 2,-4 7,-5 6,-1 11,-3 15,-5l15 -6c12,-5 20,-9 24,-12 2,-1 4,-2 5,-2 2,0 4,3 4,11l0 8z"/>
  <path class="fil1" d="M2435 637c18,0 33,3 45,8l17 7c2,1 3,1 4,1 2,0 4,-1 6,-2l3 -3c1,-1 1,-1 3,-1 4,0 6,4 6,12 0,3 1,11 3,25l4 26c1,5 1,9 1,10 0,5 -2,8 -5,8 -3,0 -5,-4 -8,-12 -6,-18 -18,-33 -36,-45 -18,-12 -39,-18 -61,-18 -18,0 -33,5 -45,16 -12,10 -18,24 -18,39 0,14 4,26 12,36 7,9 14,15 22,19 8,4 28,11 59,22 61,20 92,53 92,98 0,31 -11,56 -34,76 -23,20 -51,30 -87,30 -13,0 -27,-2 -42,-6 -15,-4 -27,-8 -34,-13 -3,-2 -5,-4 -6,-6 -1,-2 -2,-8 -4,-17 0,-1 -2,-9 -6,-22 -4,-15 -6,-25 -6,-32 0,-5 2,-7 5,-7 3,0 6,4 8,12 6,21 18,38 38,52 19,14 40,21 62,21 23,0 42,-7 58,-20 16,-13 24,-30 24,-49 0,-18 -7,-34 -22,-47 -7,-6 -29,-16 -64,-28 -37,-12 -63,-26 -78,-41 -15,-15 -23,-35 -23,-59 0,-27 10,-49 30,-65 20,-17 46,-25 77,-25zm296 315c-19,25 -42,37 -70,37 -23,0 -41,-7 -54,-21 -13,-14 -19,-34 -19,-60l0 -16 0 -82c0,-8 -2,-14 -5,-18 -3,-3 -10,-5 -19,-6 -4,0 -6,-2 -6,-5 0,-3 5,-5 15,-5l19 -1c4,0 10,-2 19,-4 2,-1 4,-1 5,-1 4,0 7,4 7,12l0 4 -2 111 0 8 4 30c3,11 10,19 19,26 9,7 20,10 31,10 14,0 27,-4 39,-13 11,-9 17,-18 17,-29l0 -119c0,-9 -2,-16 -5,-19 -3,-3 -9,-5 -18,-5 -5,0 -8,-2 -8,-4 0,-4 3,-6 9,-6l8 -1 18 -1c6,0 12,-2 19,-4 2,-1 4,-1 6,-1 3,0 5,3 5,9l0 161c0,13 1,21 4,25 3,4 8,6 17,6l4 0 4 0c4,0 5,1 6,4 0,4 -5,6 -14,6l-16 1c-11,1 -18,1 -21,2 -4,1 -7,2 -9,2 -5,0 -8,-8 -8,-23l0 -9zm147 -141c24,-24 49,-37 73,-37 25,0 45,9 62,28 17,19 25,42 25,70 0,32 -10,60 -30,82 -20,23 -44,34 -73,34 -16,0 -35,-5 -56,-15l0 50c0,18 3,30 8,36 5,6 15,9 30,9 5,0 8,2 8,5 0,3 -2,4 -7,4l-13 0 -24 0 -26 0 -10 0 -10 1 -12 0 -3 -1c-1,-1 -2,-2 -2,-4 0,-3 2,-5 7,-6 8,-2 13,-5 16,-10 3,-5 4,-15 4,-27l0 -9 0 -185 -1 -10c0,-9 -2,-16 -6,-20 -4,-4 -11,-5 -20,-5l-4 0c-2,0 -3,0 -3,-1 -1,-1 -2,-2 -2,-3 0,-3 2,-5 6,-6 28,-7 47,-15 57,-24 2,-2 3,-2 4,-2 3,0 4,2 4,7l0 5 -1 34zm0 26l0 84c0,16 6,29 17,39 12,10 27,15 46,15 21,0 38,-7 50,-21 12,-14 18,-34 18,-58 0,-29 -7,-53 -21,-71 -14,-18 -32,-28 -55,-28 -15,0 -28,4 -39,12 -11,8 -16,18 -16,29zm244 -26c24,-24 49,-37 73,-37 25,0 45,9 62,28 17,19 25,42 25,70 0,32 -10,60 -30,82 -20,23 -44,34 -73,34 -16,0 -35,-5 -56,-15l0 50c0,18 3,30 8,36 5,6 15,9 30,9 5,0 8,2 8,5 0,3 -2,4 -7,4l-13 0 -24 0 -26 0 -10 0 -10 1 -12 0 -3 -1c-1,-1 -2,-2 -2,-4 0,-3 2,-5 7,-6 8,-2 13,-5 16,-10 3,-5 4,-15 4,-27l0 -9 0 -185 -1 -10c0,-9 -2,-16 -6,-20 -4,-4 -11,-5 -20,-5l-4 0c-2,0 -3,0 -3,-1 -1,-1 -2,-2 -2,-3 0,-3 2,-5 6,-6 28,-7 47,-15 57,-24 2,-2 3,-2 4,-2 3,0 4,2 4,7l0 5 -1 34zm0 26l0 84c0,16 6,29 17,39 12,10 27,15 46,15 21,0 38,-7 50,-21 12,-14 18,-34 18,-58 0,-29 -7,-53 -21,-71 -14,-18 -32,-28 -55,-28 -15,0 -28,4 -39,12 -11,8 -16,18 -16,29zm292 -63c30,0 55,10 77,31 21,21 32,46 32,75 0,31 -10,57 -31,78 -21,20 -47,31 -80,31 -31,0 -57,-10 -77,-30 -20,-20 -30,-45 -30,-76 0,-30 11,-56 32,-77 21,-21 47,-32 78,-32zm-6 10c-21,0 -37,8 -50,23 -13,15 -19,35 -19,60 0,31 8,58 24,79 16,21 35,32 59,32 20,0 37,-8 48,-23 12,-15 18,-35 18,-61 0,-33 -7,-59 -22,-80 -15,-20 -34,-31 -57,-31zm204 35c19,-30 37,-45 53,-45 5,0 12,3 20,9 8,6 13,11 13,15 0,2 -2,7 -8,14 -5,7 -9,10 -12,10 -1,0 -5,-2 -11,-6 -7,-5 -14,-7 -20,-7 -10,0 -18,4 -25,11 -7,7 -10,16 -10,27l0 88c0,14 2,24 6,29 4,6 10,9 19,10l13 1c5,0 8,2 8,5 0,3 -2,5 -7,5 -1,0 -5,0 -12,-1 -3,0 -8,-1 -14,-1l-18 0 -11 0c-13,0 -22,0 -28,1 -4,1 -7,1 -9,1 -4,0 -7,-1 -7,-5 0,-3 3,-4 8,-5 7,-2 12,-5 14,-9 2,-4 3,-14 3,-29l0 -106c0,-19 -9,-29 -27,-29l-8 0c-4,0 -6,-2 -6,-5 0,-2 1,-4 4,-5 2,0 3,-1 5,-1 16,-1 34,-9 55,-22 2,-1 4,-2 6,-2 4,0 6,3 6,8l0 5 0 37zm161 -15l0 125c0,16 2,27 7,32 7,7 16,11 29,11 10,0 19,-2 25,-5l13 -6 2 -1c2,0 3,1 3,3 0,5 -7,11 -20,17 -13,6 -25,9 -36,9 -38,0 -57,-20 -57,-59l0 -125 -22 0c-4,0 -6,-1 -6,-4 0,-2 2,-5 7,-9 19,-16 34,-33 45,-49 4,-7 8,-11 9,-11 2,0 3,2 3,6l-1 43 53 0c7,0 13,-1 17,-4 3,-2 4,-3 6,-3 2,0 3,1 3,3 0,1 -1,3 -2,6l-6 14c-2,5 -5,7 -11,7l-59 0z"/>
  <path class="fil3" d="M712 1045c16,-1 25,1 37,0l-33 -12 -4 12z"/>
 </g>
</svg>
