<?xml version="1.0" encoding="UTF-8"?>
<!DOCTYPE svg PUBLIC "-//W3C//DTD SVG 1.1//EN" "http://www.w3.org/Graphics/SVG/1.1/DTD/svg11.dtd">
<!-- Creator: CorelDRAW X6 -->
<svg xmlns="http://www.w3.org/2000/svg" xml:space="preserve" width="165.337mm" height="67.033mm" version="1.1" style="shape-rendering:geometricPrecision; text-rendering:geometricPrecision; image-rendering:optimizeQuality; fill-rule:evenodd; clip-rule:evenodd"
viewBox="0 0 4420 1792"
 xmlns:xlink="http://www.w3.org/1999/xlink">
 <defs>
  <style type="text/css">
   <![CDATA[
    .fil0 {fill:none}
    .fil2 {fill:#666666}
    .fil1 {fill:#999999}
   ]]>
  </style>
 </defs>
 <g id="Capa_x0020_1">
  <metadata id="CorelCorpID_0Corel-Layer"/>
  <rect class="fil0" width="4420" height="1792"/>
  <path class="fil1" d="M2333 511c69,18 130,51 179,97l-99 49c-31,-22 -66,-38 -105,-48 -121,-31 -243,12 -319,100l-92 -47c99,-129 268,-194 436,-151zm-323 637c38,37 86,64 141,78 110,28 221,-5 298,-78l130 0c-96,145 -276,221 -453,175 -105,-27 -191,-91 -247,-175l130 0z"/>
  <path class="fil2" d="M968 647l-16 85c-1,8 -6,12 -14,12l-82 0 0 339c0,7 -1,11 -2,12 -1,1 -5,2 -12,2l-105 0c-6,0 -10,-1 -12,-2 -2,-2 -2,-6 -2,-12l0 -339 -88 0c-7,0 -11,-1 -12,-2 -1,-2 -2,-6 -2,-12l0 -85c0,-6 1,-10 2,-11 2,-1 6,-2 12,-2l319 0c6,0 10,1 12,3 1,2 2,6 0,13zm1021 439c0,7 -2,10 -8,10l-105 0c-7,0 -10,-3 -10,-10l0 -220c0,-22 -8,-33 -23,-33 -14,0 -29,6 -45,18l0 236c0,4 -1,7 -1,8 -1,1 -4,1 -9,1l-101 0c-7,0 -10,-3 -10,-9l0 -224c0,-29 -4,-56 -11,-81 -2,-8 -1,-13 4,-14l86 -19c6,-1 11,0 15,4 6,6 12,17 16,33 28,-24 59,-37 93,-37 73,0 109,38 109,114l0 222zm250 -419l45 0 0 48c31,5 60,15 87,30 6,3 7,10 4,18l-30 79c-2,7 -7,9 -14,6 -18,-7 -33,-13 -47,-17l0 59c15,6 25,11 31,14 20,10 36,20 47,31 20,20 29,47 29,82 0,44 -15,77 -47,101 -17,13 -37,22 -60,27l0 36 -45 0 0 -31c-4,0 -7,0 -11,0 -13,0 -26,0 -39,-1l0 32 -45 0 0 -38c-32,-6 -60,-16 -85,-30 -8,-5 -11,-12 -8,-24l24 -85c2,-8 8,-9 17,-6 19,8 36,15 52,21l0 -61c-21,-10 -37,-20 -46,-28 -23,-20 -34,-49 -34,-86 0,-41 16,-73 49,-97 10,-7 20,-13 31,-18l0 -60 45 0 0 47c14,-2 28,-3 43,-3 2,0 4,0 6,0l0 -44zm0 366l0 -36c-2,-1 -4,-3 -7,-4 -14,-6 -28,-11 -43,-17l0 57c12,3 21,5 27,5 10,0 18,-1 23,-4zm0 -163l0 -50c-24,0 -36,7 -36,21 0,9 5,16 14,21 1,0 8,3 22,9zm1564 -91l-85 290c-14,49 -23,77 -25,82 -12,30 -26,52 -43,67 -22,19 -51,28 -86,28 -14,0 -33,-3 -56,-10 -27,-7 -45,-16 -54,-26 -4,-4 -5,-10 -2,-16l32 -64c2,-5 7,-6 12,-3 27,14 45,21 56,21 12,0 21,-3 27,-8l0 0 -22 -64 -111 -296c-3,-9 0,-13 9,-14l109 -10c7,-1 11,2 13,9l42 167c2,8 5,36 11,83 3,-21 7,-48 12,-83l37 -167c1,-5 2,-8 4,-8 1,-1 5,-1 10,0l99 10c6,0 9,1 10,3 1,1 1,5 0,10zm-414 7l-29 72c-3,6 -6,9 -11,6 -5,-3 -9,-5 -14,-8 -7,-3 -15,-5 -24,-5 -12,0 -25,7 -37,20l0 214c0,6 0,9 -1,10 -1,1 -4,1 -9,1l-104 0c-5,0 -8,0 -9,-1 -1,-1 -1,-4 -1,-9l0 -209c0,-30 -6,-62 -18,-96 -2,-6 0,-10 6,-12l75 -16c9,-2 13,-3 12,-3 10,0 20,14 29,41 25,-27 51,-41 76,-41 25,0 44,9 58,26 2,3 2,7 1,11zm-331 158c0,6 -5,10 -14,10l-189 0c4,44 23,66 57,66 28,0 57,-8 87,-25 7,-4 12,-2 16,5l31 57c3,5 1,9 -5,13 -38,26 -83,39 -133,39 -56,0 -98,-16 -128,-47 -29,-30 -43,-74 -43,-130 0,-53 15,-96 44,-130 31,-35 71,-52 123,-52 102,0 153,65 153,195zm-115 -63c-1,-21 -5,-36 -12,-45 -6,-8 -16,-12 -30,-12 -14,0 -25,4 -31,12 -7,8 -12,23 -15,45l88 0zm-226 -239l-18 64c-2,8 -8,10 -17,6 -22,-9 -39,-14 -52,-14 -16,0 -24,12 -24,35l0 28 77 0c6,0 9,1 11,3 1,2 1,6 0,12l-12 69c-1,5 -5,7 -11,7l-64 0 0 236c0,5 0,7 -1,8 -1,1 -3,1 -7,1l-104 0c-4,0 -6,0 -6,0 -1,-1 -2,-4 -2,-9l0 -236 -36 0c-5,0 -8,-1 -9,-2 -1,-1 -2,-5 -2,-12l0 -65c0,-7 4,-11 12,-11l34 0 0 -26c0,-42 11,-74 33,-96 22,-22 54,-33 96,-33 36,0 69,8 97,24 5,3 7,7 5,14zm-1131 429c2,5 2,8 1,9 -1,1 -2,2 -4,2l-73 21c-5,1 -9,2 -13,2 -6,0 -14,-11 -23,-33 -26,22 -53,33 -81,33 -37,0 -65,-10 -86,-29 -20,-19 -31,-46 -31,-79 0,-79 60,-119 181,-119l0 -20c0,-13 -13,-20 -39,-20 -21,0 -48,7 -82,21 -6,2 -10,1 -12,-4l-25 -67c-2,-5 1,-10 8,-14 31,-17 73,-26 126,-26 73,0 117,24 132,72 3,10 5,25 5,45l0 123c0,28 5,55 15,82zm-129 -63l0 -58c-50,0 -75,14 -75,43 0,11 3,20 9,27 6,7 14,10 23,10 14,0 28,-7 43,-22zm-214 -223l-29 72c-3,6 -6,9 -11,6 -5,-3 -9,-5 -14,-8 -7,-3 -15,-5 -24,-5 -12,0 -25,7 -37,20l0 214c0,6 0,9 -1,10 -1,1 -4,1 -9,1l-104 0c-5,0 -8,0 -9,-1 -1,-1 -1,-4 -1,-9l0 -209c0,-30 -6,-62 -18,-96 -2,-6 0,-10 6,-12l75 -16c9,-2 13,-3 12,-3 10,0 20,14 29,41 25,-27 51,-41 76,-41 25,0 44,9 58,26 2,3 2,7 1,11z"/>
 </g>
</svg>
